<svg xmlns="http://www.w3.org/2000/svg">
  <symbol id="icon-cloud" viewBox="0 0 30 30" >
    <path d="M4.64,16.88c0,1.33,0.46,2.48,1.39,3.43c0.93,0.96,2.06,1.47,3.4,1.53c0.11,0,0.17-0.06,0.17-0.17v-1.33
    c0-0.12-0.06-0.19-0.17-0.19c-0.86-0.04-1.58-0.38-2.18-1.02s-0.9-1.39-0.9-2.25c0-0.82,0.28-1.54,0.84-2.16
    c0.56-0.61,1.26-0.97,2.1-1.07h0.53c0.13,0,0.2-0.06,0.2-0.18l0.06-0.57c0.11-1.08,0.57-1.99,1.38-2.72s1.77-1.1,2.86-1.1
    c1.08,0,2.03,0.37,2.85,1.1c0.82,0.73,1.28,1.64,1.39,2.72l0.08,0.57c0,0.12,0.06,0.18,0.18,0.18h1.61c0.89,0,1.66,0.32,2.31,0.96
    s0.98,1.4,0.98,2.26c0,0.86-0.3,1.61-0.9,2.25c-0.6,0.64-1.33,0.98-2.18,1.02c-0.13,0-0.2,0.06-0.2,0.19v1.33
    c0,0.11,0.07,0.17,0.2,0.17c0.87-0.02,1.67-0.26,2.4-0.71c0.73-0.45,1.31-1.05,1.73-1.8c0.42-0.75,0.63-1.57,0.63-2.44
    c0-0.67-0.13-1.31-0.39-1.91c-0.26-0.61-0.62-1.13-1.06-1.57c-0.44-0.44-0.97-0.79-1.58-1.05c-0.61-0.26-1.25-0.39-1.92-0.39h-0.32
    c-0.33-1.34-1.03-2.43-2.11-3.29c-1.07-0.85-2.3-1.28-3.68-1.28c-1.41,0-2.67,0.44-3.76,1.32s-1.79,2-2.1,3.36
    c-1.11,0.26-2.02,0.83-2.73,1.73C4.99,14.71,4.64,15.73,4.64,16.88z M11.58,17.51c0,0.25,0.08,0.46,0.24,0.64
    c0.15,0.15,0.35,0.23,0.61,0.23c0.24,0,0.45-0.08,0.62-0.23l1.11-1.14v3.98c0,0.24,0.08,0.44,0.23,0.61
    c0.16,0.17,0.35,0.25,0.59,0.25c0.23,0,0.43-0.08,0.6-0.25c0.17-0.17,0.25-0.37,0.25-0.61v-3.94l1.12,1.11
    c0.4,0.31,0.81,0.31,1.22,0c0.16-0.15,0.24-0.36,0.24-0.62c0-0.24-0.08-0.44-0.24-0.62l-2.59-2.57c-0.16-0.16-0.36-0.24-0.6-0.24
    c-0.24,0-0.44,0.08-0.59,0.24l-2.58,2.57C11.66,17.08,11.58,17.27,11.58,17.51z"/>
  </symbol>

	<symbol id="icon-chevron-down" viewBox="0 0 512 512">
		<title>ionicons-v5-a</title>
		<polyline points="112 184 256 328 400 184" style="fill:none;stroke:#000;stroke-linecap:square;stroke-miterlimit:10;stroke-width:48px"/>
	</symbol>

  <symbol id="icon-sunny" viewBox="0 0 30 30" style="enable-background:new 0 0 30 30;" xml:space="preserve">
	  <path d="M4.37,14.62c0-0.24,0.08-0.45,0.25-0.62c0.17-0.16,0.38-0.24,0.6-0.24h2.04c0.23,0,0.42,0.08,0.58,0.25
	c0.15,0.17,0.23,0.37,0.23,0.61S8,15.06,7.85,15.23c-0.15,0.17-0.35,0.25-0.58,0.25H5.23c-0.23,0-0.43-0.08-0.6-0.25
	C4.46,15.06,4.37,14.86,4.37,14.62z M7.23,21.55c0-0.23,0.08-0.43,0.23-0.61l1.47-1.43c0.15-0.16,0.35-0.23,0.59-0.23
	c0.24,0,0.44,0.08,0.6,0.23s0.24,0.34,0.24,0.57c0,0.24-0.08,0.46-0.24,0.64L8.7,22.14c-0.41,0.32-0.82,0.32-1.23,0
	C7.31,21.98,7.23,21.78,7.23,21.55z M7.23,7.71c0-0.23,0.08-0.43,0.23-0.61C7.66,6.93,7.87,6.85,8.1,6.85
	c0.22,0,0.42,0.08,0.59,0.24l1.43,1.47c0.16,0.15,0.24,0.35,0.24,0.59c0,0.24-0.08,0.44-0.24,0.6s-0.36,0.24-0.6,0.24
	c-0.24,0-0.44-0.08-0.59-0.24L7.47,8.32C7.31,8.16,7.23,7.95,7.23,7.71z M9.78,14.62c0-0.93,0.23-1.8,0.7-2.6s1.1-1.44,1.91-1.91
	s1.67-0.7,2.6-0.7c0.7,0,1.37,0.14,2.02,0.42c0.64,0.28,1.2,0.65,1.66,1.12c0.47,0.47,0.84,1.02,1.11,1.66
	c0.27,0.64,0.41,1.32,0.41,2.02c0,0.94-0.23,1.81-0.7,2.61c-0.47,0.8-1.1,1.43-1.9,1.9c-0.8,0.47-1.67,0.7-2.61,0.7
	s-1.81-0.23-2.61-0.7c-0.8-0.47-1.43-1.1-1.9-1.9C10.02,16.43,9.78,15.56,9.78,14.62z M11.48,14.62c0,0.98,0.34,1.81,1.03,2.5
	c0.68,0.69,1.51,1.04,2.49,1.04s1.81-0.35,2.5-1.04s1.04-1.52,1.04-2.5c0-0.96-0.35-1.78-1.04-2.47c-0.69-0.68-1.52-1.02-2.5-1.02
	c-0.97,0-1.8,0.34-2.48,1.02C11.82,12.84,11.48,13.66,11.48,14.62z M14.14,22.4c0-0.24,0.08-0.44,0.25-0.6s0.37-0.24,0.6-0.24
	c0.24,0,0.45,0.08,0.61,0.24s0.24,0.36,0.24,0.6v1.99c0,0.24-0.08,0.45-0.25,0.62c-0.17,0.17-0.37,0.25-0.6,0.25
	s-0.44-0.08-0.6-0.25c-0.17-0.17-0.25-0.38-0.25-0.62V22.4z M14.14,6.9V4.86c0-0.23,0.08-0.43,0.25-0.6C14.56,4.09,14.76,4,15,4
	s0.43,0.08,0.6,0.25c0.17,0.17,0.25,0.37,0.25,0.6V6.9c0,0.23-0.08,0.42-0.25,0.58S15.23,7.71,15,7.71s-0.44-0.08-0.6-0.23
	S14.14,7.13,14.14,6.9z M19.66,20.08c0-0.23,0.08-0.42,0.23-0.56c0.15-0.16,0.34-0.23,0.56-0.23c0.24,0,0.44,0.08,0.6,0.23
	l1.46,1.43c0.16,0.17,0.24,0.38,0.24,0.61c0,0.23-0.08,0.43-0.24,0.59c-0.4,0.31-0.8,0.31-1.2,0l-1.42-1.42
	C19.74,20.55,19.66,20.34,19.66,20.08z M19.66,9.16c0-0.25,0.08-0.45,0.23-0.59l1.42-1.47c0.17-0.16,0.37-0.24,0.59-0.24
	c0.24,0,0.44,0.08,0.6,0.25c0.17,0.17,0.25,0.37,0.25,0.6c0,0.25-0.08,0.46-0.24,0.62l-1.46,1.43c-0.18,0.16-0.38,0.24-0.6,0.24
	c-0.23,0-0.41-0.08-0.56-0.24S19.66,9.4,19.66,9.16z M21.92,14.62c0-0.24,0.08-0.44,0.24-0.62c0.16-0.16,0.35-0.24,0.57-0.24h2.02
	c0.23,0,0.43,0.09,0.6,0.26c0.17,0.17,0.26,0.37,0.26,0.6s-0.09,0.43-0.26,0.6c-0.17,0.17-0.37,0.25-0.6,0.25h-2.02
	c-0.23,0-0.43-0.08-0.58-0.25S21.92,14.86,21.92,14.62z"/>
  </symbol>

  <symbol id="icon-mainly-clear" viewBox="0 0 30 30" style="enable-background:new 0 0 30 30;" xml:space="preserve">
		<path d="M1.56,16.9c0,0.9,0.22,1.73,0.66,2.49s1.04,1.36,1.8,1.8c0.76,0.44,1.58,0.66,2.47,0.66h10.83c0.89,0,1.72-0.22,2.48-0.66
		c0.76-0.44,1.37-1.04,1.81-1.8c0.44-0.76,0.67-1.59,0.67-2.49c0-0.66-0.14-1.33-0.42-2C22.62,13.98,23,12.87,23,11.6
		c0-0.71-0.14-1.39-0.41-2.04c-0.27-0.65-0.65-1.2-1.12-1.67C21,7.42,20.45,7.04,19.8,6.77c-0.65-0.28-1.33-0.41-2.04-0.41
		c-1.48,0-2.77,0.58-3.88,1.74c-0.77-0.44-1.67-0.66-2.7-0.66c-1.41,0-2.65,0.44-3.73,1.31c-1.08,0.87-1.78,1.99-2.08,3.35
		c-1.12,0.26-2.03,0.83-2.74,1.73S1.56,15.75,1.56,16.9z M3.27,16.9c0-0.84,0.28-1.56,0.84-2.17c0.56-0.61,1.26-0.96,2.1-1.06
		l0.5-0.03c0.12,0,0.19-0.06,0.19-0.18l0.07-0.54c0.14-1.08,0.61-1.99,1.41-2.71c0.8-0.73,1.74-1.09,2.81-1.09
		c1.1,0,2.06,0.37,2.87,1.1c0.82,0.73,1.27,1.63,1.37,2.71l0.07,0.58c0.02,0.11,0.09,0.17,0.21,0.17h1.61c0.88,0,1.64,0.32,2.28,0.96
		c0.64,0.64,0.96,1.39,0.96,2.27c0,0.91-0.32,1.68-0.95,2.32c-0.63,0.64-1.4,0.96-2.28,0.96H6.49c-0.88,0-1.63-0.32-2.27-0.97
		C3.59,18.57,3.27,17.8,3.27,16.9z M9.97,4.63c0,0.24,0.08,0.45,0.24,0.63l0.66,0.64c0.25,0.19,0.46,0.27,0.64,0.25
		c0.21,0,0.39-0.09,0.55-0.26s0.24-0.38,0.24-0.62c0-0.24-0.09-0.44-0.26-0.59l-0.59-0.66c-0.18-0.16-0.38-0.24-0.61-0.24
		c-0.24,0-0.45,0.08-0.62,0.25C10.05,4.19,9.97,4.39,9.97,4.63z M15.31,9.06c0.69-0.67,1.51-1,2.45-1c0.99,0,1.83,0.34,2.52,1.03
		c0.69,0.69,1.04,1.52,1.04,2.51c0,0.62-0.17,1.24-0.51,1.84C19.84,12.48,18.68,12,17.32,12H17C16.75,10.91,16.19,9.93,15.31,9.06z
		M16.94,3.78c0,0.26,0.08,0.46,0.23,0.62s0.35,0.23,0.59,0.23c0.26,0,0.46-0.08,0.62-0.23c0.16-0.16,0.23-0.36,0.23-0.62V1.73
		c0-0.24-0.08-0.43-0.24-0.59s-0.36-0.23-0.61-0.23c-0.24,0-0.43,0.08-0.59,0.23s-0.23,0.35-0.23,0.59V3.78z M22.46,6.07
		c0,0.26,0.07,0.46,0.22,0.62c0.21,0.16,0.42,0.24,0.62,0.24c0.18,0,0.38-0.08,0.59-0.24l1.43-1.43c0.16-0.18,0.24-0.39,0.24-0.64
		c0-0.24-0.08-0.44-0.24-0.6c-0.16-0.16-0.36-0.24-0.59-0.24c-0.24,0-0.43,0.08-0.58,0.24l-1.47,1.43
		C22.53,5.64,22.46,5.84,22.46,6.07z M23.25,17.91c0,0.24,0.08,0.45,0.25,0.63l0.65,0.63c0.15,0.16,0.34,0.24,0.58,0.24
		s0.44-0.08,0.6-0.25c0.16-0.17,0.24-0.37,0.24-0.62c0-0.22-0.08-0.42-0.24-0.58l-0.65-0.65c-0.16-0.16-0.35-0.24-0.57-0.24
		c-0.24,0-0.44,0.08-0.6,0.24C23.34,17.47,23.25,17.67,23.25,17.91z M24.72,11.6c0,0.23,0.09,0.42,0.26,0.58
		c0.16,0.16,0.37,0.24,0.61,0.24h2.04c0.23,0,0.42-0.08,0.58-0.23s0.23-0.35,0.23-0.59c0-0.24-0.08-0.44-0.23-0.6
		s-0.35-0.25-0.58-0.25h-2.04c-0.24,0-0.44,0.08-0.61,0.25C24.8,11.17,24.72,11.37,24.72,11.6z"/>
	</symbol>

  <symbol id="icon-partly-cloudy" viewBox="0 0 30 30" style="enable-background:new 0 0 30 30;" xml:space="preserve">
	  <path d="M4.61,16.88c0-1.15,0.36-2.17,1.08-3.07c0.72-0.9,1.63-1.48,2.74-1.73c0.31-1.37,1.02-2.49,2.11-3.37s2.35-1.32,3.76-1.32
	c1.38,0,2.61,0.43,3.69,1.28s1.78,1.95,2.1,3.29h0.33c0.9,0,1.73,0.22,2.49,0.65s1.37,1.03,1.81,1.79c0.44,0.76,0.67,1.58,0.67,2.48
	c0,0.88-0.21,1.7-0.63,2.45s-1,1.35-1.73,1.8c-0.73,0.45-1.54,0.69-2.41,0.72H9.41c-1.34-0.06-2.47-0.57-3.4-1.53
	C5.08,19.37,4.61,18.22,4.61,16.88z M6.32,16.88c0,0.87,0.3,1.62,0.9,2.26s1.33,0.98,2.19,1.03h11.19c0.86-0.04,1.59-0.39,2.19-1.03
	c0.61-0.64,0.91-1.4,0.91-2.26c0-0.88-0.33-1.63-0.98-2.27c-0.65-0.64-1.42-0.96-2.32-0.96H18.8c-0.11,0-0.17-0.06-0.17-0.18
	l-0.07-0.57c-0.11-1.08-0.58-1.99-1.4-2.72c-0.82-0.73-1.77-1.1-2.86-1.1c-1.09,0-2.05,0.37-2.85,1.1
	c-0.81,0.73-1.27,1.64-1.37,2.72l-0.08,0.57c0,0.12-0.07,0.18-0.2,0.18H9.27c-0.84,0.1-1.54,0.46-2.1,1.07S6.32,16.05,6.32,16.88z"
	/>
</symbol>

<symbol id="icon-overcast" viewBox="0 0 30 30" style="enable-background:new 0 0 30 30;" xml:space="preserve">
	<path d="M3.89,17.6c0-0.99,0.31-1.88,0.93-2.65s1.41-1.27,2.38-1.49c0.26-1.17,0.85-2.14,1.78-2.88c0.93-0.75,2-1.12,3.22-1.12
	c1.18,0,2.24,0.36,3.16,1.09c0.93,0.73,1.53,1.66,1.8,2.8h0.27c1.18,0,2.18,0.41,3.01,1.24s1.25,1.83,1.25,3
	c0,1.18-0.42,2.18-1.25,3.01s-1.83,1.25-3.01,1.25H8.16c-0.58,0-1.13-0.11-1.65-0.34S5.52,21,5.14,20.62
	c-0.38-0.38-0.68-0.84-0.91-1.36S3.89,18.17,3.89,17.6z M5.34,17.6c0,0.76,0.28,1.42,0.82,1.96s1.21,0.82,1.99,0.82h9.28
	c0.77,0,1.44-0.27,1.99-0.82c0.55-0.55,0.83-1.2,0.83-1.96c0-0.76-0.27-1.42-0.83-1.96c-0.55-0.54-1.21-0.82-1.99-0.82h-1.39
	c-0.1,0-0.15-0.05-0.15-0.15l-0.07-0.49c-0.1-0.94-0.5-1.73-1.19-2.35s-1.51-0.93-2.45-0.93c-0.94,0-1.76,0.31-2.46,0.94
	c-0.7,0.62-1.09,1.41-1.18,2.34l-0.07,0.42c0,0.1-0.05,0.15-0.16,0.15l-0.45,0.07c-0.72,0.06-1.32,0.36-1.81,0.89
	C5.59,16.24,5.34,16.87,5.34,17.6z M14.19,8.88c-0.1,0.09-0.08,0.16,0.07,0.21c0.43,0.19,0.79,0.37,1.08,0.55
	c0.11,0.03,0.19,0.02,0.22-0.03c0.61-0.57,1.31-0.86,2.12-0.86c0.81,0,1.5,0.27,2.1,0.81c0.59,0.54,0.92,1.21,0.99,2l0.09,0.64h1.42
	c0.65,0,1.21,0.23,1.68,0.7c0.47,0.47,0.7,1.02,0.7,1.66c0,0.6-0.21,1.12-0.62,1.57s-0.92,0.7-1.53,0.77c-0.1,0-0.15,0.05-0.15,0.16
	v1.13c0,0.11,0.05,0.16,0.15,0.16c1.01-0.06,1.86-0.46,2.55-1.19s1.04-1.6,1.04-2.6c0-1.06-0.37-1.96-1.12-2.7
	c-0.75-0.75-1.65-1.12-2.7-1.12h-0.15c-0.26-1-0.81-1.82-1.65-2.47c-0.83-0.65-1.77-0.97-2.8-0.97C16.28,7.29,15.11,7.82,14.19,8.88
	z"/>
</symbol>

<symbol id="icon-fog" viewBox="0 0 30 30" style="enable-background:new 0 0 30 30;" xml:space="preserve">
	<path d="M7.33,16.58c0-0.23,0.08-0.41,0.23-0.56c0.16-0.15,0.37-0.22,0.64-0.22h5.71c0.27,0,0.48,0.07,0.64,0.22
	c0.16,0.15,0.23,0.33,0.23,0.56c0,0.27-0.08,0.49-0.23,0.64s-0.37,0.23-0.64,0.23H8.2c-0.27,0-0.48-0.08-0.64-0.23
	S7.33,16.86,7.33,16.58z M7.33,10.67c0-0.22,0.08-0.41,0.23-0.55C7.72,9.97,7.93,9.9,8.2,9.9h2.96c0.27,0,0.48,0.07,0.64,0.22
	c0.16,0.14,0.24,0.33,0.24,0.55c0,0.27-0.08,0.48-0.24,0.64c-0.16,0.16-0.37,0.24-0.64,0.24H8.2c-0.27,0-0.48-0.08-0.64-0.23
	S7.33,10.94,7.33,10.67z M8.32,19.54c0-0.22,0.09-0.42,0.28-0.6c0.18-0.18,0.39-0.28,0.6-0.28c0.26,0,0.46,0.09,0.62,0.27
	s0.24,0.38,0.24,0.61c0,0.27-0.08,0.49-0.23,0.65c-0.15,0.16-0.36,0.23-0.63,0.23c-0.23,0-0.44-0.08-0.61-0.24
	C8.4,20.01,8.32,19.8,8.32,19.54z M9.74,13.61c0-0.23,0.07-0.44,0.22-0.61c0.15-0.18,0.33-0.27,0.54-0.27
	c0.26,0,0.48,0.09,0.64,0.27c0.16,0.18,0.24,0.38,0.24,0.61c0,0.27-0.08,0.49-0.23,0.65c-0.16,0.16-0.37,0.23-0.65,0.23
	c-0.23,0-0.41-0.08-0.55-0.24S9.74,13.88,9.74,13.61z M10.73,19.54c0-0.23,0.08-0.44,0.24-0.61s0.38-0.27,0.64-0.27h3.83l0.88,0.88
	c0,0.26-0.09,0.47-0.27,0.64s-0.38,0.24-0.61,0.24h-3.83c-0.27,0-0.49-0.08-0.65-0.24S10.73,19.81,10.73,19.54z M12.05,13.61
	c0-0.22,0.09-0.42,0.28-0.6c0.18-0.18,0.39-0.28,0.6-0.28h3.83c0.26,0,0.47,0.09,0.63,0.27c0.16,0.18,0.24,0.38,0.24,0.61
	c0,0.27-0.08,0.49-0.23,0.65c-0.16,0.16-0.37,0.23-0.64,0.23h-3.83c-0.23,0-0.44-0.08-0.61-0.24
	C12.14,14.09,12.05,13.88,12.05,13.61z M12.81,10.67c0-0.22,0.08-0.41,0.24-0.55c0.16-0.14,0.37-0.22,0.64-0.22h5.71
	c0.23,0,0.43,0.08,0.61,0.23c0.18,0.15,0.27,0.33,0.27,0.54c0,0.26-0.09,0.48-0.27,0.64c-0.18,0.16-0.38,0.24-0.61,0.24h-5.71
	c-0.27,0-0.49-0.08-0.65-0.24C12.88,11.15,12.81,10.94,12.81,10.67z M15.44,16.58c0-0.21,0.09-0.4,0.27-0.55
	c0.18-0.15,0.38-0.23,0.61-0.23s0.43,0.08,0.61,0.23c0.18,0.15,0.27,0.34,0.27,0.55c0,0.26-0.09,0.47-0.27,0.63
	c-0.18,0.16-0.38,0.24-0.61,0.24c-0.23,0-0.44-0.08-0.61-0.24C15.53,17.06,15.44,16.85,15.44,16.58z M16.98,19.54
	c0-0.23,0.08-0.44,0.24-0.61c0.16-0.18,0.37-0.27,0.63-0.27h1.87c0.26,0,0.47,0.09,0.63,0.26c0.16,0.17,0.24,0.38,0.24,0.62
	c0,0.27-0.08,0.49-0.23,0.65c-0.15,0.16-0.37,0.23-0.64,0.23h-1.87c-0.27,0-0.48-0.08-0.64-0.23
	C17.06,20.03,16.98,19.81,16.98,19.54z M17.85,16.58c0-0.21,0.09-0.4,0.27-0.55c0.18-0.15,0.38-0.23,0.61-0.23h3.07
	c0.22,0,0.4,0.08,0.54,0.23c0.14,0.15,0.22,0.33,0.22,0.55c0,0.27-0.07,0.48-0.21,0.64c-0.14,0.16-0.32,0.23-0.55,0.23h-3.07
	c-0.23,0-0.44-0.08-0.61-0.24C17.94,17.06,17.85,16.85,17.85,16.58z M18.29,13.61c0-0.22,0.09-0.42,0.28-0.6
	c0.18-0.18,0.39-0.28,0.6-0.28h1.96c0.21,0,0.39,0.09,0.54,0.27c0.15,0.18,0.23,0.38,0.23,0.61c0,0.27-0.07,0.48-0.22,0.64
	c-0.14,0.16-0.33,0.24-0.55,0.24h-1.96c-0.23,0-0.44-0.08-0.61-0.24C18.38,14.09,18.29,13.88,18.29,13.61z M21.03,10.67
	c0-0.22,0.07-0.4,0.22-0.55C21.4,9.97,21.58,9.9,21.8,9.9c0.27,0,0.48,0.07,0.64,0.22c0.16,0.14,0.24,0.33,0.24,0.55
	c0,0.27-0.08,0.48-0.24,0.64c-0.16,0.16-0.37,0.24-0.64,0.24c-0.23,0-0.41-0.08-0.55-0.24C21.1,11.15,21.03,10.94,21.03,10.67z"/>
</symbol>

<symbol id="icon-drizzle" viewBox="0 0 30 30" style="enable-background:new 0 0 30 30;" xml:space="preserve">
	<path d="M4.64,16.91c0-1.15,0.36-2.17,1.08-3.07c0.72-0.9,1.63-1.47,2.73-1.73c0.31-1.36,1.01-2.48,2.1-3.35s2.35-1.31,3.76-1.31
	c1.38,0,2.6,0.43,3.68,1.27c1.07,0.85,1.78,1.94,2.11,3.28h0.31c0.89,0,1.72,0.22,2.48,0.65s1.37,1.03,1.81,1.78
	c0.44,0.75,0.67,1.58,0.67,2.47c0,1.34-0.46,2.49-1.38,3.45s-2.05,1.47-3.38,1.51c-0.13,0-0.2-0.06-0.2-0.17v-1.33
	c0-0.12,0.07-0.18,0.2-0.18c0.86-0.04,1.58-0.38,2.18-1.02s0.9-1.39,0.9-2.26s-0.32-1.62-0.98-2.26c-0.65-0.64-1.42-0.96-2.31-0.96
	h-1.6c-0.12,0-0.19-0.06-0.19-0.17l-0.07-0.58c-0.11-1.07-0.57-1.98-1.38-2.71c-0.82-0.73-1.77-1.1-2.85-1.1
	c-1.09,0-2.05,0.36-2.86,1.09c-0.81,0.73-1.27,1.63-1.38,2.71l-0.06,0.54c0,0.12-0.07,0.18-0.2,0.18l-0.53,0.03
	c-0.82,0.04-1.51,0.37-2.09,1s-0.86,1.37-0.86,2.22c0,0.87,0.3,1.62,0.9,2.26s1.33,0.98,2.18,1.02c0.11,0,0.17,0.06,0.17,0.18v1.33
	c0,0.11-0.06,0.17-0.17,0.17c-1.34-0.06-2.47-0.57-3.4-1.53S4.64,18.24,4.64,16.91z M10.57,17.79c0-0.24,0.12-0.57,0.37-0.99
	c0.24-0.42,0.47-0.75,0.68-1.01c0.21-0.24,0.34-0.38,0.38-0.42l0.36,0.4c0.26,0.28,0.5,0.61,0.72,1.02c0.22,0.4,0.33,0.74,0.33,1
	c0,0.39-0.13,0.72-0.4,0.98c-0.27,0.26-0.6,0.39-1,0.39c-0.39,0-0.73-0.13-1.01-0.4C10.71,18.5,10.57,18.17,10.57,17.79z
	 M13.55,21.78c0-0.28,0.08-0.59,0.24-0.96s0.35-0.7,0.59-1.02c0.18-0.26,0.4-0.54,0.67-0.84c0.26-0.3,0.46-0.52,0.6-0.65
	c0.07-0.06,0.15-0.14,0.24-0.23l0.24,0.23c0.38,0.33,0.8,0.82,1.27,1.46c0.24,0.33,0.43,0.68,0.59,1.04s0.23,0.68,0.23,0.97
	c0,0.64-0.23,1.19-0.68,1.65s-1.01,0.68-1.66,0.68c-0.64,0-1.19-0.23-1.65-0.67C13.77,22.98,13.55,22.43,13.55,21.78z M15.02,15.12
	c0-0.42,0.32-0.95,0.97-1.6l0.24,0.25c0.18,0.21,0.33,0.45,0.48,0.71c0.14,0.26,0.22,0.47,0.22,0.64c0,0.26-0.09,0.48-0.28,0.66
	c-0.18,0.18-0.4,0.28-0.66,0.28c-0.27,0-0.5-0.09-0.69-0.28C15.11,15.6,15.02,15.38,15.02,15.12z"/>
</symbol>

<symbol id="icon-rain" viewBox="0 0 30 30" style="enable-background:new 0 0 30 30;" xml:space="preserve">
	<path d="M4.64,16.91c0-1.15,0.36-2.17,1.08-3.07c0.72-0.9,1.63-1.47,2.73-1.73c0.31-1.36,1.02-2.48,2.11-3.36s2.34-1.31,3.75-1.31
	c1.38,0,2.6,0.43,3.68,1.28c1.08,0.85,1.78,1.95,2.1,3.29h0.32c0.89,0,1.72,0.22,2.48,0.65s1.37,1.03,1.81,1.78
	c0.44,0.75,0.67,1.58,0.67,2.47c0,0.88-0.21,1.69-0.63,2.44c-0.42,0.75-1,1.35-1.73,1.8c-0.73,0.45-1.53,0.69-2.4,0.71
	c-0.13,0-0.2-0.06-0.2-0.17v-1.33c0-0.12,0.07-0.18,0.2-0.18c0.85-0.04,1.58-0.38,2.18-1.02s0.9-1.39,0.9-2.26s-0.33-1.62-0.98-2.26
	s-1.42-0.96-2.31-0.96h-1.61c-0.12,0-0.18-0.06-0.18-0.17l-0.08-0.58c-0.11-1.08-0.58-1.99-1.39-2.71
	c-0.82-0.73-1.76-1.09-2.85-1.09c-1.09,0-2.05,0.36-2.85,1.09c-0.81,0.73-1.26,1.63-1.36,2.71l-0.07,0.53c0,0.12-0.07,0.19-0.2,0.19
	l-0.53,0.03c-0.83,0.1-1.53,0.46-2.1,1.07s-0.85,1.33-0.85,2.16c0,0.87,0.3,1.62,0.9,2.26s1.33,0.98,2.18,1.02
	c0.11,0,0.17,0.06,0.17,0.18v1.33c0,0.11-0.06,0.17-0.17,0.17c-1.34-0.06-2.47-0.57-3.4-1.53S4.64,18.24,4.64,16.91z M9.99,23.6
	c0-0.04,0.01-0.11,0.04-0.2l1.63-5.77c0.06-0.19,0.17-0.34,0.32-0.44c0.15-0.1,0.31-0.15,0.46-0.15c0.07,0,0.15,0.01,0.24,0.03
	c0.24,0.04,0.42,0.17,0.54,0.37c0.12,0.2,0.15,0.42,0.08,0.67l-1.63,5.73c-0.12,0.43-0.4,0.64-0.82,0.64
	c-0.04,0-0.07-0.01-0.11-0.02c-0.06-0.02-0.09-0.03-0.1-0.03c-0.22-0.06-0.38-0.17-0.49-0.33C10.04,23.93,9.99,23.77,9.99,23.6z
	 M12.61,26.41l2.44-8.77c0.04-0.19,0.14-0.34,0.3-0.44c0.16-0.1,0.32-0.15,0.49-0.15c0.09,0,0.18,0.01,0.27,0.03
	c0.22,0.06,0.38,0.19,0.49,0.39c0.11,0.2,0.13,0.41,0.07,0.64l-2.43,8.78c-0.04,0.17-0.13,0.31-0.29,0.43
	c-0.16,0.12-0.32,0.18-0.51,0.18c-0.09,0-0.18-0.02-0.25-0.05c-0.2-0.05-0.37-0.18-0.52-0.39C12.56,26.88,12.54,26.67,12.61,26.41z
	 M16.74,23.62c0-0.04,0.01-0.11,0.04-0.23l1.63-5.77c0.06-0.19,0.16-0.34,0.3-0.44c0.15-0.1,0.3-0.15,0.46-0.15
	c0.08,0,0.17,0.01,0.26,0.03c0.21,0.06,0.36,0.16,0.46,0.31c0.1,0.15,0.15,0.31,0.15,0.47c0,0.03-0.01,0.08-0.02,0.14
	s-0.02,0.1-0.02,0.12l-1.63,5.73c-0.04,0.19-0.13,0.35-0.28,0.46s-0.32,0.17-0.51,0.17l-0.24-0.05c-0.2-0.06-0.35-0.16-0.46-0.32
	C16.79,23.94,16.74,23.78,16.74,23.62z"/>
</symbol>

<symbol id="icon-showers" viewBox="0 0 30 30" style="enable-background:new 0 0 30 30;" xml:space="preserve">
	<path d="M4.6,16.93c0-1.16,0.36-2.18,1.09-3.08c0.72-0.9,1.65-1.48,2.78-1.73c0.29-1.38,0.98-2.5,2.07-3.39S12.88,7.4,14.3,7.4
	c1.39,0,2.63,0.43,3.72,1.28c1.08,0.85,1.79,1.95,2.12,3.3h0.34c0.9,0,1.73,0.22,2.48,0.66c0.76,0.44,1.35,1.04,1.79,1.8
	c0.43,0.76,0.65,1.59,0.65,2.49c0,1.34-0.46,2.48-1.37,3.44c-0.92,0.96-2.04,1.46-3.37,1.5c-0.12,0-0.18-0.06-0.18-0.17v-1.34
	c0-0.11,0.06-0.17,0.18-0.17c0.84-0.07,1.57-0.42,2.17-1.05s0.9-1.37,0.9-2.22c0-0.89-0.32-1.66-0.96-2.31
	c-0.64-0.64-1.4-0.97-2.29-0.97h-1.63c-0.12,0-0.19-0.06-0.22-0.18l-0.07-0.57c-0.07-0.71-0.3-1.36-0.7-1.94s-0.91-1.03-1.53-1.36
	c-0.62-0.33-1.3-0.49-2.02-0.49c-1.1,0-2.05,0.36-2.86,1.09c-0.81,0.73-1.27,1.64-1.37,2.72l-0.07,0.54c0,0.09-0.05,0.14-0.16,0.14
	L9.31,13.7c-0.84,0.07-1.55,0.41-2.11,1.03c-0.57,0.62-0.85,1.35-0.85,2.2c0,0.87,0.3,1.62,0.89,2.25c0.59,0.63,1.31,0.97,2.17,1.02
	c0.12,0,0.18,0.06,0.18,0.17v1.34c0,0.11-0.06,0.17-0.18,0.17c-0.66-0.03-1.28-0.18-1.88-0.45S6.42,20.8,6,20.36
	c-0.43-0.44-0.77-0.95-1.02-1.55S4.6,17.59,4.6,16.93z M10.02,23.7c0-0.03,0.01-0.08,0.02-0.13s0.02-0.09,0.02-0.11l0.27-1.03
	c0.07-0.22,0.2-0.4,0.4-0.51c0.2-0.12,0.41-0.14,0.64-0.07c0.23,0.07,0.4,0.2,0.52,0.4c0.12,0.2,0.14,0.41,0.07,0.64l-0.24,1.01
	c-0.13,0.44-0.38,0.66-0.76,0.66c-0.03,0-0.05,0-0.09,0c-0.03,0-0.07-0.01-0.11-0.01c-0.04-0.01-0.07-0.01-0.1-0.01
	c-0.21-0.06-0.37-0.18-0.48-0.34S10.02,23.86,10.02,23.7z M11.34,18.88c0-0.02,0-0.06,0.01-0.11c0.01-0.05,0.01-0.08,0.01-0.09
	l0.3-1.05c0.06-0.19,0.17-0.34,0.32-0.45c0.15-0.1,0.31-0.15,0.47-0.15c0.02,0,0.05,0,0.08,0c0.03,0,0.06,0.01,0.09,0.01
	c0.03,0.01,0.06,0.01,0.08,0.01c0.23,0.07,0.4,0.2,0.51,0.4c0.12,0.2,0.14,0.41,0.07,0.64l-0.24,1c-0.07,0.28-0.2,0.47-0.4,0.59
	s-0.42,0.12-0.65,0.02c-0.22-0.06-0.38-0.17-0.49-0.34S11.34,19.04,11.34,18.88z M12.57,26.83c0-0.03,0.01-0.07,0.02-0.13
	s0.02-0.09,0.02-0.12l0.29-0.99c0.06-0.24,0.2-0.42,0.4-0.54c0.2-0.12,0.42-0.15,0.65-0.08c0.23,0.07,0.39,0.2,0.51,0.41
	s0.13,0.42,0.07,0.65l-0.25,1.04c-0.11,0.41-0.37,0.61-0.8,0.61c-0.05,0-0.13-0.01-0.24-0.04c-0.22-0.04-0.38-0.14-0.49-0.3
	C12.63,27.18,12.57,27.01,12.57,26.83z M13.91,22.06c0-0.06,0.01-0.14,0.04-0.25l0.27-1.03c0.07-0.23,0.2-0.4,0.41-0.51
	c0.2-0.12,0.42-0.14,0.65-0.07c0.23,0.06,0.39,0.19,0.51,0.39c0.11,0.2,0.13,0.41,0.06,0.65l-0.24,0.99
	c-0.13,0.45-0.37,0.68-0.72,0.68c-0.04,0-0.15-0.02-0.31-0.06c-0.22-0.04-0.38-0.14-0.49-0.3C13.97,22.4,13.91,22.23,13.91,22.06z
	 M16.73,23.74c0-0.07,0.01-0.15,0.03-0.24l0.28-0.99c0.07-0.24,0.2-0.42,0.41-0.54s0.41-0.15,0.63-0.09
	c0.23,0.07,0.41,0.2,0.53,0.41c0.12,0.2,0.15,0.41,0.09,0.63l-0.29,1.06c-0.1,0.41-0.36,0.61-0.79,0.61c-0.09,0-0.18-0.01-0.26-0.03
	c-0.2-0.04-0.35-0.14-0.46-0.3C16.8,24.08,16.74,23.91,16.73,23.74z M18.11,18.98c0-0.03,0.02-0.12,0.05-0.26l0.3-1.03
	c0.04-0.21,0.13-0.37,0.29-0.47c0.16-0.1,0.32-0.15,0.49-0.14c0.04-0.01,0.13,0,0.24,0.03c0.22,0.05,0.39,0.18,0.52,0.38
	c0.12,0.17,0.14,0.38,0.07,0.65l-0.24,1.03c-0.13,0.43-0.38,0.65-0.76,0.65c-0.06,0-0.17-0.02-0.34-0.06
	c-0.21-0.06-0.36-0.17-0.46-0.31C18.16,19.29,18.11,19.14,18.11,18.98z"/>
</symbol>

<symbol id="icon-thunderstorm" viewBox="0 0 30 30" style="enable-background:new 0 0 30 30;" xml:space="preserve">
	<path d="M4.63,16.91c0,1.11,0.33,2.1,0.99,2.97s1.52,1.47,2.58,1.79l-0.66,1.68c-0.03,0.14,0.02,0.22,0.14,0.22h2.13l-0.98,4.3h0.28
	l3.92-5.75c0.04-0.04,0.04-0.09,0.01-0.14c-0.03-0.05-0.08-0.07-0.15-0.07h-2.18l2.48-4.64c0.07-0.14,0.02-0.22-0.14-0.22h-2.94
	c-0.09,0-0.17,0.05-0.23,0.15l-1.07,2.87c-0.71-0.18-1.3-0.57-1.77-1.16c-0.47-0.59-0.7-1.26-0.7-2.01c0-0.83,0.28-1.55,0.85-2.17
	c0.57-0.61,1.27-0.97,2.1-1.07l0.53-0.07c0.13,0,0.2-0.06,0.2-0.18l0.07-0.51c0.11-1.08,0.56-1.99,1.37-2.72
	c0.81-0.73,1.76-1.1,2.85-1.1c1.09,0,2.04,0.37,2.85,1.1c0.82,0.73,1.28,1.64,1.4,2.72l0.07,0.58c0,0.11,0.06,0.17,0.18,0.17h1.6
	c0.91,0,1.68,0.32,2.32,0.95c0.64,0.63,0.97,1.4,0.97,2.28c0,0.85-0.3,1.59-0.89,2.21c-0.59,0.62-1.33,0.97-2.2,1.04
	c-0.13,0-0.2,0.06-0.2,0.18v1.37c0,0.11,0.07,0.17,0.2,0.17c1.33-0.04,2.46-0.55,3.39-1.51s1.39-2.11,1.39-3.45
	c0-0.9-0.22-1.73-0.67-2.49c-0.44-0.76-1.05-1.36-1.81-1.8c-0.77-0.44-1.6-0.66-2.5-0.66H20.1c-0.33-1.33-1.04-2.42-2.11-3.26
	s-2.3-1.27-3.68-1.27c-1.41,0-2.67,0.44-3.76,1.31s-1.79,1.99-2.1,3.36c-1.11,0.26-2.02,0.83-2.74,1.73S4.63,15.76,4.63,16.91z
	 M12.77,26.62c0,0.39,0.19,0.65,0.58,0.77c0.01,0,0.05,0,0.11,0.01c0.06,0.01,0.11,0.01,0.14,0.01c0.17,0,0.33-0.05,0.49-0.15
	c0.16-0.1,0.27-0.26,0.32-0.48l2.25-8.69c0.06-0.24,0.04-0.45-0.07-0.65c-0.11-0.19-0.27-0.32-0.5-0.39
	c-0.17-0.02-0.26-0.03-0.26-0.03c-0.16,0-0.32,0.05-0.47,0.15c-0.15,0.1-0.26,0.25-0.31,0.45l-2.26,8.72
	C12.78,26.44,12.77,26.53,12.77,26.62z M16.93,23.56c0,0.13,0.03,0.26,0.1,0.38c0.14,0.22,0.31,0.37,0.51,0.44
	c0.11,0.03,0.21,0.05,0.3,0.05s0.2-0.02,0.32-0.08c0.21-0.09,0.35-0.28,0.42-0.57l1.44-5.67c0.03-0.14,0.05-0.23,0.05-0.27
	c0-0.15-0.05-0.3-0.16-0.45s-0.26-0.26-0.46-0.32c-0.17-0.02-0.26-0.03-0.26-0.03c-0.17,0-0.33,0.05-0.47,0.15
	c-0.14,0.1-0.24,0.25-0.3,0.45l-1.46,5.7c0,0.02,0,0.05-0.01,0.11C16.93,23.5,16.93,23.53,16.93,23.56z"/>
</symbol>

<symbol id="icon-freezing-rain" viewBox="0 0 30 30" style="enable-background:new 0 0 30 30;" xml:space="preserve">
	<path d="M4.64,16.95c0-1.16,0.35-2.18,1.06-3.08s1.62-1.48,2.74-1.76c0.31-1.36,1.01-2.48,2.1-3.36s2.34-1.31,3.75-1.31
	c1.38,0,2.6,0.43,3.68,1.28c1.08,0.85,1.78,1.95,2.1,3.29h0.32c0.89,0,1.72,0.22,2.48,0.66c0.76,0.44,1.37,1.04,1.81,1.8
	c0.44,0.76,0.67,1.59,0.67,2.48c0,1.32-0.46,2.47-1.39,3.42c-0.92,0.96-2.05,1.46-3.38,1.5c-0.13,0-0.2-0.06-0.2-0.17v-1.33
	c0-0.12,0.07-0.18,0.2-0.18c0.85-0.04,1.58-0.38,2.18-1.02s0.9-1.38,0.9-2.23c0-0.89-0.32-1.65-0.97-2.3s-1.42-0.97-2.32-0.97h-1.61
	c-0.12,0-0.18-0.06-0.18-0.17l-0.08-0.58c-0.11-1.08-0.58-1.99-1.39-2.72c-0.82-0.73-1.76-1.1-2.85-1.1c-1.1,0-2.05,0.37-2.86,1.11
	c-0.81,0.74-1.27,1.65-1.37,2.75l-0.06,0.5c0,0.12-0.07,0.19-0.2,0.19l-0.53,0.07c-0.83,0.07-1.53,0.41-2.1,1.04
	s-0.85,1.35-0.85,2.19c0,0.85,0.3,1.59,0.9,2.23s1.33,0.97,2.18,1.02c0.11,0,0.17,0.06,0.17,0.18v1.33c0,0.11-0.06,0.17-0.17,0.17
	c-1.34-0.04-2.47-0.54-3.4-1.5C5.1,19.42,4.64,18.27,4.64,16.95z M10.14,24.65c0-0.23,0.08-0.43,0.25-0.6
	c0.16-0.15,0.35-0.23,0.57-0.23c0.23,0,0.43,0.08,0.59,0.23s0.24,0.35,0.24,0.59c0,0.24-0.08,0.43-0.24,0.59
	c-0.16,0.16-0.35,0.23-0.59,0.23c-0.23,0-0.43-0.08-0.59-0.23C10.22,25.08,10.14,24.88,10.14,24.65z M11,21.02
	c0-0.22,0.08-0.42,0.24-0.58c0.16-0.16,0.35-0.24,0.59-0.24c0.23,0,0.43,0.08,0.59,0.24c0.16,0.16,0.24,0.36,0.24,0.58
	c0,0.24-0.08,0.44-0.24,0.6c-0.16,0.17-0.35,0.25-0.59,0.25c-0.23,0-0.43-0.08-0.59-0.25C11.08,21.46,11,21.26,11,21.02z
	 M12.9,26.61c0-0.23,0.08-0.43,0.25-0.61c0.16-0.16,0.35-0.24,0.57-0.24c0.24,0,0.44,0.08,0.61,0.25c0.17,0.17,0.25,0.37,0.25,0.6
	s-0.08,0.43-0.25,0.59c-0.17,0.16-0.37,0.24-0.61,0.24c-0.23,0-0.42-0.08-0.58-0.24C12.99,27.03,12.9,26.84,12.9,26.61z
	 M13.77,22.95c0-0.24,0.08-0.44,0.24-0.62c0.16-0.16,0.36-0.24,0.58-0.24c0.23,0,0.43,0.08,0.6,0.25c0.17,0.17,0.25,0.37,0.25,0.61
	c0,0.23-0.08,0.43-0.25,0.6s-0.37,0.25-0.6,0.25c-0.23,0-0.42-0.08-0.58-0.25C13.85,23.38,13.77,23.18,13.77,22.95z M14.19,19.33
	c0-0.23,0.08-0.43,0.25-0.6c0.18-0.16,0.37-0.24,0.57-0.24c0.24,0,0.44,0.08,0.61,0.25c0.17,0.17,0.25,0.36,0.25,0.6
	c0,0.23-0.08,0.43-0.25,0.59c-0.17,0.16-0.37,0.24-0.61,0.24c-0.23,0-0.42-0.08-0.58-0.24C14.27,19.76,14.19,19.56,14.19,19.33z
	 M16.56,24.65c0-0.23,0.08-0.43,0.24-0.6c0.16-0.15,0.36-0.23,0.6-0.23c0.24,0,0.43,0.08,0.59,0.23c0.16,0.16,0.23,0.35,0.23,0.59
	c0,0.24-0.08,0.43-0.23,0.59c-0.16,0.16-0.35,0.23-0.59,0.23c-0.24,0-0.44-0.08-0.6-0.24C16.64,25.07,16.56,24.88,16.56,24.65z
	 M17.41,21.02c0-0.22,0.08-0.41,0.25-0.58c0.17-0.17,0.37-0.25,0.6-0.25c0.23,0,0.43,0.08,0.59,0.24c0.16,0.16,0.24,0.36,0.24,0.58
	c0,0.24-0.08,0.44-0.24,0.6c-0.16,0.17-0.35,0.25-0.59,0.25c-0.24,0-0.44-0.08-0.6-0.25C17.5,21.45,17.41,21.25,17.41,21.02z"/>
</symbol>

<symbol id="icon-snow" viewBox="0 0 30 30" style="enable-background:new 0 0 30 30;" xml:space="preserve">
	<path d="M4.64,16.95c0-1.16,0.35-2.18,1.06-3.08s1.62-1.48,2.74-1.76c0.31-1.36,1.01-2.48,2.1-3.36s2.34-1.31,3.75-1.31
	c1.38,0,2.6,0.43,3.68,1.28c1.08,0.85,1.78,1.95,2.1,3.29h0.32c0.89,0,1.72,0.22,2.48,0.66c0.76,0.44,1.37,1.04,1.81,1.8
	c0.44,0.76,0.67,1.59,0.67,2.48c0,1.32-0.46,2.47-1.39,3.42c-0.92,0.96-2.05,1.46-3.38,1.5c-0.13,0-0.2-0.06-0.2-0.17v-1.33
	c0-0.12,0.07-0.18,0.2-0.18c0.85-0.04,1.58-0.38,2.18-1.02s0.9-1.38,0.9-2.23c0-0.89-0.32-1.65-0.97-2.3s-1.42-0.97-2.32-0.97h-1.61
	c-0.12,0-0.18-0.06-0.18-0.17l-0.08-0.58c-0.11-1.08-0.58-1.99-1.39-2.72c-0.82-0.73-1.76-1.1-2.85-1.1c-1.1,0-2.05,0.37-2.86,1.11
	c-0.81,0.74-1.27,1.65-1.37,2.75l-0.06,0.5c0,0.12-0.07,0.19-0.2,0.19l-0.53,0.07c-0.83,0.07-1.53,0.41-2.1,1.04
	s-0.85,1.35-0.85,2.19c0,0.85,0.3,1.59,0.9,2.23s1.33,0.97,2.18,1.02c0.11,0,0.17,0.06,0.17,0.18v1.33c0,0.11-0.06,0.17-0.17,0.17
	c-1.34-0.04-2.47-0.54-3.4-1.5C5.1,19.42,4.64,18.27,4.64,16.95z M11,21.02c0-0.22,0.08-0.42,0.24-0.58
	c0.16-0.16,0.35-0.24,0.59-0.24c0.23,0,0.43,0.08,0.59,0.24c0.16,0.16,0.24,0.36,0.24,0.58c0,0.24-0.08,0.44-0.24,0.6
	c-0.16,0.17-0.35,0.25-0.59,0.25c-0.23,0-0.43-0.08-0.59-0.25C11.08,21.46,11,21.26,11,21.02z M11,24.65c0-0.24,0.08-0.44,0.24-0.6
	c0.16-0.15,0.35-0.23,0.58-0.23c0.23,0,0.43,0.08,0.59,0.23c0.16,0.16,0.24,0.35,0.24,0.59c0,0.24-0.08,0.43-0.24,0.59
	c-0.16,0.16-0.35,0.23-0.59,0.23c-0.23,0-0.43-0.08-0.59-0.23C11.08,25.08,11,24.88,11,24.65z M14.19,22.95
	c0-0.23,0.08-0.44,0.25-0.62c0.16-0.16,0.35-0.24,0.57-0.24c0.23,0,0.43,0.09,0.6,0.26c0.17,0.17,0.26,0.37,0.26,0.6
	c0,0.23-0.08,0.43-0.25,0.6c-0.17,0.17-0.37,0.25-0.61,0.25c-0.23,0-0.42-0.08-0.58-0.25S14.19,23.18,14.19,22.95z M14.19,19.33
	c0-0.23,0.08-0.43,0.25-0.6c0.18-0.16,0.37-0.24,0.57-0.24c0.24,0,0.44,0.08,0.61,0.25c0.17,0.17,0.25,0.36,0.25,0.6
	c0,0.23-0.08,0.43-0.25,0.59c-0.17,0.16-0.37,0.24-0.61,0.24c-0.23,0-0.42-0.08-0.58-0.24C14.27,19.76,14.19,19.56,14.19,19.33z
	 M14.19,26.61c0-0.23,0.08-0.43,0.25-0.61c0.16-0.16,0.35-0.24,0.57-0.24c0.24,0,0.44,0.08,0.61,0.25c0.17,0.17,0.25,0.37,0.25,0.6
	s-0.08,0.43-0.25,0.59c-0.17,0.16-0.37,0.24-0.61,0.24c-0.23,0-0.42-0.08-0.58-0.24C14.27,27.03,14.19,26.84,14.19,26.61z
	 M17.41,21.02c0-0.22,0.08-0.41,0.25-0.58c0.17-0.17,0.37-0.25,0.6-0.25c0.23,0,0.43,0.08,0.59,0.24c0.16,0.16,0.24,0.36,0.24,0.58
	c0,0.24-0.08,0.44-0.24,0.6c-0.16,0.17-0.35,0.25-0.59,0.25c-0.24,0-0.44-0.08-0.6-0.25C17.5,21.45,17.41,21.25,17.41,21.02z
	 M17.41,24.65c0-0.22,0.08-0.42,0.25-0.6c0.16-0.15,0.36-0.23,0.6-0.23c0.24,0,0.43,0.08,0.59,0.23s0.23,0.35,0.23,0.59
	c0,0.24-0.08,0.43-0.23,0.59c-0.16,0.16-0.35,0.23-0.59,0.23c-0.24,0-0.44-0.08-0.6-0.24C17.5,25.07,17.41,24.88,17.41,24.65z"/>
</symbol>

</svg>